<mxfile host="app.diagrams.net" modified="2024-08-26T01:19:35.669Z" agent="Mozilla/5.0 (Windows NT 10.0; Win64; x64; rv:129.0) Gecko/20100101 Firefox/129.0" etag="QQqEVF0WfPuvQ-1dtgPv" version="24.6.4" type="device">
  <diagram name="PÃ¡gina-1" id="i9qNzjX4z0l8SVrTQkbF">
    <mxGraphModel dx="1242" dy="684" grid="1" gridSize="10" guides="1" tooltips="1" connect="1" arrows="1" fold="1" page="1" pageScale="1" pageWidth="827" pageHeight="1169" math="0" shadow="0">
      <root>
        <mxCell id="0" />
        <mxCell id="1" parent="0" />
        <mxCell id="56UlhMCWbAaiD_25nn8Y-24" style="edgeStyle=orthogonalEdgeStyle;rounded=0;orthogonalLoop=1;jettySize=auto;html=1;entryX=0;entryY=0.5;entryDx=0;entryDy=0;" edge="1" parent="1" source="56UlhMCWbAaiD_25nn8Y-1" target="56UlhMCWbAaiD_25nn8Y-2">
          <mxGeometry relative="1" as="geometry">
            <Array as="points">
              <mxPoint x="252" y="640" />
              <mxPoint x="252" y="40" />
            </Array>
          </mxGeometry>
        </mxCell>
        <mxCell id="56UlhMCWbAaiD_25nn8Y-27" style="edgeStyle=orthogonalEdgeStyle;rounded=0;orthogonalLoop=1;jettySize=auto;html=1;exitX=1;exitY=0.5;exitDx=0;exitDy=0;entryX=0;entryY=0.5;entryDx=0;entryDy=0;" edge="1" parent="1" source="56UlhMCWbAaiD_25nn8Y-1" target="56UlhMCWbAaiD_25nn8Y-26">
          <mxGeometry relative="1" as="geometry" />
        </mxCell>
        <mxCell id="56UlhMCWbAaiD_25nn8Y-28" style="edgeStyle=orthogonalEdgeStyle;rounded=0;orthogonalLoop=1;jettySize=auto;html=1;exitX=1;exitY=0.5;exitDx=0;exitDy=0;entryX=0;entryY=0.5;entryDx=0;entryDy=0;" edge="1" parent="1" source="56UlhMCWbAaiD_25nn8Y-1" target="56UlhMCWbAaiD_25nn8Y-4">
          <mxGeometry relative="1" as="geometry" />
        </mxCell>
        <mxCell id="56UlhMCWbAaiD_25nn8Y-29" style="edgeStyle=orthogonalEdgeStyle;rounded=0;orthogonalLoop=1;jettySize=auto;html=1;exitX=1;exitY=0.5;exitDx=0;exitDy=0;entryX=0;entryY=0.5;entryDx=0;entryDy=0;" edge="1" parent="1" source="56UlhMCWbAaiD_25nn8Y-1" target="56UlhMCWbAaiD_25nn8Y-5">
          <mxGeometry relative="1" as="geometry" />
        </mxCell>
        <mxCell id="56UlhMCWbAaiD_25nn8Y-30" style="edgeStyle=orthogonalEdgeStyle;rounded=0;orthogonalLoop=1;jettySize=auto;html=1;exitX=1;exitY=0.5;exitDx=0;exitDy=0;entryX=0;entryY=0.5;entryDx=0;entryDy=0;" edge="1" parent="1" source="56UlhMCWbAaiD_25nn8Y-1" target="56UlhMCWbAaiD_25nn8Y-6">
          <mxGeometry relative="1" as="geometry" />
        </mxCell>
        <mxCell id="56UlhMCWbAaiD_25nn8Y-31" style="edgeStyle=orthogonalEdgeStyle;rounded=0;orthogonalLoop=1;jettySize=auto;html=1;exitX=1;exitY=0.5;exitDx=0;exitDy=0;entryX=0;entryY=0.5;entryDx=0;entryDy=0;" edge="1" parent="1" source="56UlhMCWbAaiD_25nn8Y-1" target="56UlhMCWbAaiD_25nn8Y-7">
          <mxGeometry relative="1" as="geometry" />
        </mxCell>
        <mxCell id="56UlhMCWbAaiD_25nn8Y-32" style="edgeStyle=orthogonalEdgeStyle;rounded=0;orthogonalLoop=1;jettySize=auto;html=1;exitX=1;exitY=0.5;exitDx=0;exitDy=0;entryX=0;entryY=0.5;entryDx=0;entryDy=0;" edge="1" parent="1" source="56UlhMCWbAaiD_25nn8Y-1" target="56UlhMCWbAaiD_25nn8Y-8">
          <mxGeometry relative="1" as="geometry" />
        </mxCell>
        <mxCell id="56UlhMCWbAaiD_25nn8Y-33" style="edgeStyle=orthogonalEdgeStyle;rounded=0;orthogonalLoop=1;jettySize=auto;html=1;exitX=1;exitY=0.5;exitDx=0;exitDy=0;entryX=0;entryY=0.5;entryDx=0;entryDy=0;" edge="1" parent="1" source="56UlhMCWbAaiD_25nn8Y-1" target="56UlhMCWbAaiD_25nn8Y-9">
          <mxGeometry relative="1" as="geometry" />
        </mxCell>
        <mxCell id="56UlhMCWbAaiD_25nn8Y-34" style="edgeStyle=orthogonalEdgeStyle;rounded=0;orthogonalLoop=1;jettySize=auto;html=1;exitX=1;exitY=0.5;exitDx=0;exitDy=0;entryX=0;entryY=0.5;entryDx=0;entryDy=0;" edge="1" parent="1" source="56UlhMCWbAaiD_25nn8Y-1" target="56UlhMCWbAaiD_25nn8Y-10">
          <mxGeometry relative="1" as="geometry" />
        </mxCell>
        <mxCell id="56UlhMCWbAaiD_25nn8Y-35" style="edgeStyle=orthogonalEdgeStyle;rounded=0;orthogonalLoop=1;jettySize=auto;html=1;exitX=1;exitY=0.5;exitDx=0;exitDy=0;entryX=0;entryY=0.5;entryDx=0;entryDy=0;" edge="1" parent="1" source="56UlhMCWbAaiD_25nn8Y-1" target="56UlhMCWbAaiD_25nn8Y-11">
          <mxGeometry relative="1" as="geometry" />
        </mxCell>
        <mxCell id="56UlhMCWbAaiD_25nn8Y-36" style="edgeStyle=orthogonalEdgeStyle;rounded=0;orthogonalLoop=1;jettySize=auto;html=1;exitX=1;exitY=0.5;exitDx=0;exitDy=0;entryX=0;entryY=0.5;entryDx=0;entryDy=0;" edge="1" parent="1" source="56UlhMCWbAaiD_25nn8Y-1" target="56UlhMCWbAaiD_25nn8Y-12">
          <mxGeometry relative="1" as="geometry" />
        </mxCell>
        <mxCell id="56UlhMCWbAaiD_25nn8Y-38" style="edgeStyle=orthogonalEdgeStyle;rounded=0;orthogonalLoop=1;jettySize=auto;html=1;entryX=0;entryY=0.5;entryDx=0;entryDy=0;" edge="1" parent="1" source="56UlhMCWbAaiD_25nn8Y-1" target="56UlhMCWbAaiD_25nn8Y-13">
          <mxGeometry relative="1" as="geometry" />
        </mxCell>
        <mxCell id="56UlhMCWbAaiD_25nn8Y-39" style="edgeStyle=orthogonalEdgeStyle;rounded=0;orthogonalLoop=1;jettySize=auto;html=1;exitX=1;exitY=0.5;exitDx=0;exitDy=0;entryX=0;entryY=0.5;entryDx=0;entryDy=0;" edge="1" parent="1" source="56UlhMCWbAaiD_25nn8Y-1" target="56UlhMCWbAaiD_25nn8Y-14">
          <mxGeometry relative="1" as="geometry" />
        </mxCell>
        <mxCell id="56UlhMCWbAaiD_25nn8Y-40" style="edgeStyle=orthogonalEdgeStyle;rounded=0;orthogonalLoop=1;jettySize=auto;html=1;entryX=0;entryY=0.5;entryDx=0;entryDy=0;" edge="1" parent="1" source="56UlhMCWbAaiD_25nn8Y-1" target="56UlhMCWbAaiD_25nn8Y-15">
          <mxGeometry relative="1" as="geometry" />
        </mxCell>
        <mxCell id="56UlhMCWbAaiD_25nn8Y-41" style="edgeStyle=orthogonalEdgeStyle;rounded=0;orthogonalLoop=1;jettySize=auto;html=1;entryX=0;entryY=0.5;entryDx=0;entryDy=0;" edge="1" parent="1" source="56UlhMCWbAaiD_25nn8Y-1" target="56UlhMCWbAaiD_25nn8Y-16">
          <mxGeometry relative="1" as="geometry" />
        </mxCell>
        <mxCell id="56UlhMCWbAaiD_25nn8Y-42" style="edgeStyle=orthogonalEdgeStyle;rounded=0;orthogonalLoop=1;jettySize=auto;html=1;entryX=0;entryY=0.5;entryDx=0;entryDy=0;" edge="1" parent="1" source="56UlhMCWbAaiD_25nn8Y-1" target="56UlhMCWbAaiD_25nn8Y-17">
          <mxGeometry relative="1" as="geometry" />
        </mxCell>
        <mxCell id="56UlhMCWbAaiD_25nn8Y-43" style="edgeStyle=orthogonalEdgeStyle;rounded=0;orthogonalLoop=1;jettySize=auto;html=1;entryX=0;entryY=0.5;entryDx=0;entryDy=0;" edge="1" parent="1" source="56UlhMCWbAaiD_25nn8Y-1" target="56UlhMCWbAaiD_25nn8Y-18">
          <mxGeometry relative="1" as="geometry" />
        </mxCell>
        <mxCell id="56UlhMCWbAaiD_25nn8Y-44" style="edgeStyle=orthogonalEdgeStyle;rounded=0;orthogonalLoop=1;jettySize=auto;html=1;entryX=0;entryY=0.5;entryDx=0;entryDy=0;" edge="1" parent="1" source="56UlhMCWbAaiD_25nn8Y-1" target="56UlhMCWbAaiD_25nn8Y-19">
          <mxGeometry relative="1" as="geometry" />
        </mxCell>
        <mxCell id="56UlhMCWbAaiD_25nn8Y-45" style="edgeStyle=orthogonalEdgeStyle;rounded=0;orthogonalLoop=1;jettySize=auto;html=1;entryX=0;entryY=0.5;entryDx=0;entryDy=0;" edge="1" parent="1" source="56UlhMCWbAaiD_25nn8Y-1" target="56UlhMCWbAaiD_25nn8Y-20">
          <mxGeometry relative="1" as="geometry" />
        </mxCell>
        <mxCell id="56UlhMCWbAaiD_25nn8Y-46" style="edgeStyle=orthogonalEdgeStyle;rounded=0;orthogonalLoop=1;jettySize=auto;html=1;entryX=0;entryY=0.5;entryDx=0;entryDy=0;" edge="1" parent="1" source="56UlhMCWbAaiD_25nn8Y-1" target="56UlhMCWbAaiD_25nn8Y-21">
          <mxGeometry relative="1" as="geometry" />
        </mxCell>
        <mxCell id="56UlhMCWbAaiD_25nn8Y-47" style="edgeStyle=orthogonalEdgeStyle;rounded=0;orthogonalLoop=1;jettySize=auto;html=1;entryX=0;entryY=0.5;entryDx=0;entryDy=0;" edge="1" parent="1" source="56UlhMCWbAaiD_25nn8Y-1" target="56UlhMCWbAaiD_25nn8Y-22">
          <mxGeometry relative="1" as="geometry" />
        </mxCell>
        <mxCell id="56UlhMCWbAaiD_25nn8Y-119" style="edgeStyle=orthogonalEdgeStyle;rounded=0;orthogonalLoop=1;jettySize=auto;html=1;entryX=0;entryY=0.5;entryDx=0;entryDy=0;" edge="1" parent="1" source="56UlhMCWbAaiD_25nn8Y-1" target="56UlhMCWbAaiD_25nn8Y-117">
          <mxGeometry relative="1" as="geometry" />
        </mxCell>
        <mxCell id="56UlhMCWbAaiD_25nn8Y-1" value="&lt;div&gt;e0&lt;/div&gt;" style="ellipse;whiteSpace=wrap;html=1;aspect=fixed;" vertex="1" parent="1">
          <mxGeometry x="90" y="620" width="40" height="40" as="geometry" />
        </mxCell>
        <mxCell id="56UlhMCWbAaiD_25nn8Y-2" value="e1" style="ellipse;whiteSpace=wrap;html=1;aspect=fixed;fillColor=#d5e8d4;strokeColor=#82b366;" vertex="1" parent="1">
          <mxGeometry x="374" y="20" width="40" height="40" as="geometry" />
        </mxCell>
        <mxCell id="56UlhMCWbAaiD_25nn8Y-4" value="e3" style="ellipse;whiteSpace=wrap;html=1;aspect=fixed;fillColor=#d5e8d4;strokeColor=#82b366;" vertex="1" parent="1">
          <mxGeometry x="374" y="170" width="40" height="40" as="geometry" />
        </mxCell>
        <mxCell id="56UlhMCWbAaiD_25nn8Y-5" value="e4" style="ellipse;whiteSpace=wrap;html=1;aspect=fixed;fillColor=#d5e8d4;strokeColor=#82b366;" vertex="1" parent="1">
          <mxGeometry x="374" y="230" width="40" height="40" as="geometry" />
        </mxCell>
        <mxCell id="56UlhMCWbAaiD_25nn8Y-6" value="e5" style="ellipse;whiteSpace=wrap;html=1;aspect=fixed;fillColor=#d5e8d4;strokeColor=#82b366;" vertex="1" parent="1">
          <mxGeometry x="374" y="290" width="40" height="40" as="geometry" />
        </mxCell>
        <mxCell id="56UlhMCWbAaiD_25nn8Y-7" value="e6" style="ellipse;whiteSpace=wrap;html=1;aspect=fixed;fillColor=#d5e8d4;strokeColor=#82b366;" vertex="1" parent="1">
          <mxGeometry x="374" y="350" width="40" height="40" as="geometry" />
        </mxCell>
        <mxCell id="56UlhMCWbAaiD_25nn8Y-8" value="&lt;div&gt;e7&lt;/div&gt;" style="ellipse;whiteSpace=wrap;html=1;aspect=fixed;fillColor=#d5e8d4;strokeColor=#82b366;" vertex="1" parent="1">
          <mxGeometry x="374" y="410" width="40" height="40" as="geometry" />
        </mxCell>
        <mxCell id="56UlhMCWbAaiD_25nn8Y-9" value="&lt;div&gt;e8&lt;/div&gt;" style="ellipse;whiteSpace=wrap;html=1;aspect=fixed;fillColor=#d5e8d4;strokeColor=#82b366;" vertex="1" parent="1">
          <mxGeometry x="374" y="470" width="40" height="40" as="geometry" />
        </mxCell>
        <mxCell id="56UlhMCWbAaiD_25nn8Y-10" value="&lt;div&gt;e9&lt;/div&gt;" style="ellipse;whiteSpace=wrap;html=1;aspect=fixed;fillColor=#d5e8d4;strokeColor=#82b366;" vertex="1" parent="1">
          <mxGeometry x="374" y="530" width="40" height="40" as="geometry" />
        </mxCell>
        <mxCell id="56UlhMCWbAaiD_25nn8Y-61" style="edgeStyle=orthogonalEdgeStyle;rounded=0;orthogonalLoop=1;jettySize=auto;html=1;entryX=0;entryY=0.5;entryDx=0;entryDy=0;" edge="1" parent="1" source="56UlhMCWbAaiD_25nn8Y-11" target="56UlhMCWbAaiD_25nn8Y-60">
          <mxGeometry relative="1" as="geometry" />
        </mxCell>
        <mxCell id="56UlhMCWbAaiD_25nn8Y-11" value="&lt;div&gt;e10&lt;/div&gt;" style="ellipse;whiteSpace=wrap;html=1;aspect=fixed;fillColor=#d5e8d4;strokeColor=#82b366;" vertex="1" parent="1">
          <mxGeometry x="374" y="590" width="40" height="40" as="geometry" />
        </mxCell>
        <mxCell id="56UlhMCWbAaiD_25nn8Y-70" style="edgeStyle=orthogonalEdgeStyle;rounded=0;orthogonalLoop=1;jettySize=auto;html=1;entryX=0;entryY=0.5;entryDx=0;entryDy=0;" edge="1" parent="1" source="56UlhMCWbAaiD_25nn8Y-12" target="56UlhMCWbAaiD_25nn8Y-69">
          <mxGeometry relative="1" as="geometry" />
        </mxCell>
        <mxCell id="56UlhMCWbAaiD_25nn8Y-12" value="&lt;div&gt;e12&lt;/div&gt;" style="ellipse;whiteSpace=wrap;html=1;aspect=fixed;fillColor=#d5e8d4;strokeColor=#82b366;" vertex="1" parent="1">
          <mxGeometry x="374" y="650" width="40" height="40" as="geometry" />
        </mxCell>
        <mxCell id="56UlhMCWbAaiD_25nn8Y-75" style="edgeStyle=orthogonalEdgeStyle;rounded=0;orthogonalLoop=1;jettySize=auto;html=1;entryX=0;entryY=0.5;entryDx=0;entryDy=0;" edge="1" parent="1" source="56UlhMCWbAaiD_25nn8Y-13" target="56UlhMCWbAaiD_25nn8Y-73">
          <mxGeometry relative="1" as="geometry" />
        </mxCell>
        <mxCell id="56UlhMCWbAaiD_25nn8Y-13" value="&lt;div&gt;e14&lt;/div&gt;" style="ellipse;whiteSpace=wrap;html=1;aspect=fixed;fillColor=#d5e8d4;strokeColor=#82b366;" vertex="1" parent="1">
          <mxGeometry x="374" y="710" width="40" height="40" as="geometry" />
        </mxCell>
        <mxCell id="56UlhMCWbAaiD_25nn8Y-81" style="edgeStyle=orthogonalEdgeStyle;rounded=0;orthogonalLoop=1;jettySize=auto;html=1;entryX=0;entryY=0.5;entryDx=0;entryDy=0;" edge="1" parent="1" source="56UlhMCWbAaiD_25nn8Y-14" target="56UlhMCWbAaiD_25nn8Y-78">
          <mxGeometry relative="1" as="geometry" />
        </mxCell>
        <mxCell id="56UlhMCWbAaiD_25nn8Y-14" value="&lt;div&gt;e16&lt;/div&gt;" style="ellipse;whiteSpace=wrap;html=1;aspect=fixed;fillColor=#d5e8d4;strokeColor=#82b366;" vertex="1" parent="1">
          <mxGeometry x="374" y="770" width="40" height="40" as="geometry" />
        </mxCell>
        <mxCell id="56UlhMCWbAaiD_25nn8Y-84" style="edgeStyle=orthogonalEdgeStyle;rounded=0;orthogonalLoop=1;jettySize=auto;html=1;entryX=0;entryY=0.5;entryDx=0;entryDy=0;" edge="1" parent="1" source="56UlhMCWbAaiD_25nn8Y-15" target="56UlhMCWbAaiD_25nn8Y-83">
          <mxGeometry relative="1" as="geometry" />
        </mxCell>
        <mxCell id="56UlhMCWbAaiD_25nn8Y-15" value="&lt;div&gt;e18&lt;/div&gt;" style="ellipse;whiteSpace=wrap;html=1;aspect=fixed;fillColor=#d5e8d4;strokeColor=#82b366;" vertex="1" parent="1">
          <mxGeometry x="374" y="830" width="40" height="40" as="geometry" />
        </mxCell>
        <mxCell id="56UlhMCWbAaiD_25nn8Y-89" style="edgeStyle=orthogonalEdgeStyle;rounded=0;orthogonalLoop=1;jettySize=auto;html=1;entryX=0;entryY=0.5;entryDx=0;entryDy=0;" edge="1" parent="1" source="56UlhMCWbAaiD_25nn8Y-16" target="56UlhMCWbAaiD_25nn8Y-88">
          <mxGeometry relative="1" as="geometry" />
        </mxCell>
        <mxCell id="56UlhMCWbAaiD_25nn8Y-16" value="&lt;div&gt;e20&lt;/div&gt;" style="ellipse;whiteSpace=wrap;html=1;aspect=fixed;fillColor=#d5e8d4;strokeColor=#82b366;" vertex="1" parent="1">
          <mxGeometry x="374" y="890" width="40" height="40" as="geometry" />
        </mxCell>
        <mxCell id="56UlhMCWbAaiD_25nn8Y-95" style="edgeStyle=orthogonalEdgeStyle;rounded=0;orthogonalLoop=1;jettySize=auto;html=1;entryX=0;entryY=0.5;entryDx=0;entryDy=0;" edge="1" parent="1" source="56UlhMCWbAaiD_25nn8Y-17" target="56UlhMCWbAaiD_25nn8Y-93">
          <mxGeometry relative="1" as="geometry" />
        </mxCell>
        <mxCell id="56UlhMCWbAaiD_25nn8Y-17" value="&lt;div&gt;e22&lt;/div&gt;" style="ellipse;whiteSpace=wrap;html=1;aspect=fixed;fillColor=#d5e8d4;strokeColor=#82b366;" vertex="1" parent="1">
          <mxGeometry x="374" y="950" width="40" height="40" as="geometry" />
        </mxCell>
        <mxCell id="56UlhMCWbAaiD_25nn8Y-99" style="edgeStyle=orthogonalEdgeStyle;rounded=0;orthogonalLoop=1;jettySize=auto;html=1;entryX=0;entryY=0.5;entryDx=0;entryDy=0;" edge="1" parent="1" source="56UlhMCWbAaiD_25nn8Y-18" target="56UlhMCWbAaiD_25nn8Y-98">
          <mxGeometry relative="1" as="geometry" />
        </mxCell>
        <mxCell id="56UlhMCWbAaiD_25nn8Y-18" value="&lt;div&gt;e24&lt;/div&gt;" style="ellipse;whiteSpace=wrap;html=1;aspect=fixed;fillColor=#d5e8d4;strokeColor=#82b366;" vertex="1" parent="1">
          <mxGeometry x="374" y="1010" width="40" height="40" as="geometry" />
        </mxCell>
        <mxCell id="56UlhMCWbAaiD_25nn8Y-106" style="edgeStyle=orthogonalEdgeStyle;rounded=0;orthogonalLoop=1;jettySize=auto;html=1;entryX=0;entryY=0.5;entryDx=0;entryDy=0;" edge="1" parent="1" source="56UlhMCWbAaiD_25nn8Y-19" target="56UlhMCWbAaiD_25nn8Y-105">
          <mxGeometry relative="1" as="geometry" />
        </mxCell>
        <mxCell id="56UlhMCWbAaiD_25nn8Y-19" value="&lt;div&gt;e26&lt;/div&gt;" style="ellipse;whiteSpace=wrap;html=1;aspect=fixed;" vertex="1" parent="1">
          <mxGeometry x="374" y="1070" width="40" height="40" as="geometry" />
        </mxCell>
        <mxCell id="56UlhMCWbAaiD_25nn8Y-111" style="edgeStyle=orthogonalEdgeStyle;rounded=0;orthogonalLoop=1;jettySize=auto;html=1;entryX=0;entryY=0.5;entryDx=0;entryDy=0;" edge="1" parent="1" source="56UlhMCWbAaiD_25nn8Y-20" target="56UlhMCWbAaiD_25nn8Y-110">
          <mxGeometry relative="1" as="geometry" />
        </mxCell>
        <mxCell id="56UlhMCWbAaiD_25nn8Y-20" value="&lt;div&gt;e28&lt;/div&gt;" style="ellipse;whiteSpace=wrap;html=1;aspect=fixed;" vertex="1" parent="1">
          <mxGeometry x="374" y="1130" width="40" height="40" as="geometry" />
        </mxCell>
        <mxCell id="56UlhMCWbAaiD_25nn8Y-21" value="&lt;div&gt;e30&lt;/div&gt;" style="ellipse;whiteSpace=wrap;html=1;aspect=fixed;fillColor=#d5e8d4;strokeColor=#82b366;" vertex="1" parent="1">
          <mxGeometry x="374" y="1190" width="40" height="40" as="geometry" />
        </mxCell>
        <mxCell id="56UlhMCWbAaiD_25nn8Y-22" value="&lt;div&gt;e31&lt;/div&gt;" style="ellipse;whiteSpace=wrap;html=1;aspect=fixed;fillColor=#d5e8d4;strokeColor=#82b366;" vertex="1" parent="1">
          <mxGeometry x="374" y="1250" width="40" height="40" as="geometry" />
        </mxCell>
        <mxCell id="56UlhMCWbAaiD_25nn8Y-26" value="e2" style="ellipse;whiteSpace=wrap;html=1;aspect=fixed;fillColor=#d5e8d4;strokeColor=#82b366;" vertex="1" parent="1">
          <mxGeometry x="374" y="90" width="40" height="40" as="geometry" />
        </mxCell>
        <mxCell id="56UlhMCWbAaiD_25nn8Y-48" value="&lt;div&gt;Digito&lt;/div&gt;" style="text;html=1;align=center;verticalAlign=middle;whiteSpace=wrap;rounded=0;" vertex="1" parent="1">
          <mxGeometry x="280" y="10" width="60" height="30" as="geometry" />
        </mxCell>
        <mxCell id="56UlhMCWbAaiD_25nn8Y-50" value="Letra" style="text;html=1;align=center;verticalAlign=middle;whiteSpace=wrap;rounded=0;" vertex="1" parent="1">
          <mxGeometry x="280" y="80" width="60" height="30" as="geometry" />
        </mxCell>
        <mxCell id="56UlhMCWbAaiD_25nn8Y-51" value="(" style="text;html=1;align=center;verticalAlign=middle;whiteSpace=wrap;rounded=0;" vertex="1" parent="1">
          <mxGeometry x="280" y="160" width="60" height="30" as="geometry" />
        </mxCell>
        <mxCell id="56UlhMCWbAaiD_25nn8Y-52" value=")" style="text;html=1;align=center;verticalAlign=middle;whiteSpace=wrap;rounded=0;" vertex="1" parent="1">
          <mxGeometry x="280" y="220" width="60" height="30" as="geometry" />
        </mxCell>
        <mxCell id="56UlhMCWbAaiD_25nn8Y-53" value="&lt;span lang=&quot;es&quot; class=&quot;ILfuVd&quot;&gt;&lt;span class=&quot;hgKElc&quot;&gt;&lt;span&gt;&lt;span&gt;{&lt;/span&gt;&lt;/span&gt;&lt;/span&gt;&lt;/span&gt;" style="text;html=1;align=center;verticalAlign=middle;whiteSpace=wrap;rounded=0;" vertex="1" parent="1">
          <mxGeometry x="280" y="280" width="60" height="30" as="geometry" />
        </mxCell>
        <mxCell id="56UlhMCWbAaiD_25nn8Y-54" value="&lt;span lang=&quot;es&quot; class=&quot;ILfuVd&quot;&gt;&lt;span class=&quot;hgKElc&quot;&gt;&lt;span&gt;&lt;span&gt;}&lt;/span&gt;&lt;/span&gt;&lt;/span&gt;&lt;/span&gt;" style="text;html=1;align=center;verticalAlign=middle;whiteSpace=wrap;rounded=0;" vertex="1" parent="1">
          <mxGeometry x="280" y="340" width="60" height="30" as="geometry" />
        </mxCell>
        <mxCell id="56UlhMCWbAaiD_25nn8Y-55" value=";" style="text;html=1;align=center;verticalAlign=middle;whiteSpace=wrap;rounded=0;" vertex="1" parent="1">
          <mxGeometry x="280" y="400" width="60" height="30" as="geometry" />
        </mxCell>
        <mxCell id="56UlhMCWbAaiD_25nn8Y-56" value="coma" style="text;html=1;align=center;verticalAlign=middle;whiteSpace=wrap;rounded=0;" vertex="1" parent="1">
          <mxGeometry x="280" y="460" width="60" height="30" as="geometry" />
        </mxCell>
        <mxCell id="56UlhMCWbAaiD_25nn8Y-57" value="punto" style="text;html=1;align=center;verticalAlign=middle;whiteSpace=wrap;rounded=0;" vertex="1" parent="1">
          <mxGeometry x="280" y="520" width="60" height="30" as="geometry" />
        </mxCell>
        <mxCell id="56UlhMCWbAaiD_25nn8Y-59" value="&amp;gt;" style="text;html=1;align=center;verticalAlign=middle;whiteSpace=wrap;rounded=0;" vertex="1" parent="1">
          <mxGeometry x="280" y="580" width="60" height="30" as="geometry" />
        </mxCell>
        <mxCell id="56UlhMCWbAaiD_25nn8Y-60" value="&lt;div&gt;e11&lt;/div&gt;" style="ellipse;whiteSpace=wrap;html=1;aspect=fixed;fillColor=#d5e8d4;strokeColor=#82b366;" vertex="1" parent="1">
          <mxGeometry x="570" y="590" width="40" height="40" as="geometry" />
        </mxCell>
        <mxCell id="56UlhMCWbAaiD_25nn8Y-62" value="&amp;gt;=" style="text;html=1;align=center;verticalAlign=middle;whiteSpace=wrap;rounded=0;" vertex="1" parent="1">
          <mxGeometry x="460" y="580" width="60" height="30" as="geometry" />
        </mxCell>
        <mxCell id="56UlhMCWbAaiD_25nn8Y-63" value="&amp;lt;" style="text;html=1;align=center;verticalAlign=middle;whiteSpace=wrap;rounded=0;" vertex="1" parent="1">
          <mxGeometry x="280" y="640" width="60" height="30" as="geometry" />
        </mxCell>
        <mxCell id="56UlhMCWbAaiD_25nn8Y-65" value="&amp;lt;=" style="text;html=1;align=center;verticalAlign=middle;whiteSpace=wrap;rounded=0;" vertex="1" parent="1">
          <mxGeometry x="460" y="640" width="60" height="30" as="geometry" />
        </mxCell>
        <mxCell id="56UlhMCWbAaiD_25nn8Y-69" value="&lt;div&gt;e13&lt;/div&gt;" style="ellipse;whiteSpace=wrap;html=1;aspect=fixed;fillColor=#d5e8d4;strokeColor=#82b366;" vertex="1" parent="1">
          <mxGeometry x="570" y="650" width="40" height="40" as="geometry" />
        </mxCell>
        <mxCell id="56UlhMCWbAaiD_25nn8Y-71" value="!" style="text;html=1;align=center;verticalAlign=middle;whiteSpace=wrap;rounded=0;" vertex="1" parent="1">
          <mxGeometry x="280" y="700" width="60" height="30" as="geometry" />
        </mxCell>
        <mxCell id="56UlhMCWbAaiD_25nn8Y-73" value="&lt;div&gt;e15&lt;/div&gt;" style="ellipse;whiteSpace=wrap;html=1;aspect=fixed;fillColor=#d5e8d4;strokeColor=#82b366;" vertex="1" parent="1">
          <mxGeometry x="570" y="710" width="40" height="40" as="geometry" />
        </mxCell>
        <mxCell id="56UlhMCWbAaiD_25nn8Y-76" value="!=" style="text;html=1;align=center;verticalAlign=middle;whiteSpace=wrap;rounded=0;" vertex="1" parent="1">
          <mxGeometry x="460" y="700" width="60" height="30" as="geometry" />
        </mxCell>
        <mxCell id="56UlhMCWbAaiD_25nn8Y-77" value="=" style="text;html=1;align=center;verticalAlign=middle;whiteSpace=wrap;rounded=0;" vertex="1" parent="1">
          <mxGeometry x="280" y="760" width="60" height="30" as="geometry" />
        </mxCell>
        <mxCell id="56UlhMCWbAaiD_25nn8Y-78" value="&lt;div&gt;e17&lt;/div&gt;" style="ellipse;whiteSpace=wrap;html=1;aspect=fixed;fillColor=#d5e8d4;strokeColor=#82b366;" vertex="1" parent="1">
          <mxGeometry x="570" y="770" width="40" height="40" as="geometry" />
        </mxCell>
        <mxCell id="56UlhMCWbAaiD_25nn8Y-79" value="==" style="text;html=1;align=center;verticalAlign=middle;whiteSpace=wrap;rounded=0;" vertex="1" parent="1">
          <mxGeometry x="460" y="760" width="60" height="30" as="geometry" />
        </mxCell>
        <mxCell id="56UlhMCWbAaiD_25nn8Y-82" value="+" style="text;html=1;align=center;verticalAlign=middle;whiteSpace=wrap;rounded=0;" vertex="1" parent="1">
          <mxGeometry x="280" y="820" width="60" height="30" as="geometry" />
        </mxCell>
        <mxCell id="56UlhMCWbAaiD_25nn8Y-83" value="&lt;div&gt;e19&lt;/div&gt;" style="ellipse;whiteSpace=wrap;html=1;aspect=fixed;fillColor=#d5e8d4;strokeColor=#82b366;" vertex="1" parent="1">
          <mxGeometry x="570" y="830" width="40" height="40" as="geometry" />
        </mxCell>
        <mxCell id="56UlhMCWbAaiD_25nn8Y-85" value="+=" style="text;html=1;align=center;verticalAlign=middle;whiteSpace=wrap;rounded=0;" vertex="1" parent="1">
          <mxGeometry x="460" y="820" width="60" height="30" as="geometry" />
        </mxCell>
        <mxCell id="56UlhMCWbAaiD_25nn8Y-87" value="-" style="text;html=1;align=center;verticalAlign=middle;whiteSpace=wrap;rounded=0;" vertex="1" parent="1">
          <mxGeometry x="280" y="880" width="60" height="30" as="geometry" />
        </mxCell>
        <mxCell id="56UlhMCWbAaiD_25nn8Y-88" value="&lt;div&gt;e21&lt;/div&gt;" style="ellipse;whiteSpace=wrap;html=1;aspect=fixed;fillColor=#d5e8d4;strokeColor=#82b366;" vertex="1" parent="1">
          <mxGeometry x="570" y="890" width="40" height="40" as="geometry" />
        </mxCell>
        <mxCell id="56UlhMCWbAaiD_25nn8Y-90" value="-=" style="text;html=1;align=center;verticalAlign=middle;whiteSpace=wrap;rounded=0;" vertex="1" parent="1">
          <mxGeometry x="460" y="880" width="60" height="30" as="geometry" />
        </mxCell>
        <mxCell id="56UlhMCWbAaiD_25nn8Y-91" value="*" style="text;html=1;align=center;verticalAlign=middle;whiteSpace=wrap;rounded=0;" vertex="1" parent="1">
          <mxGeometry x="280" y="940" width="60" height="30" as="geometry" />
        </mxCell>
        <mxCell id="56UlhMCWbAaiD_25nn8Y-93" value="&lt;div&gt;e23&lt;/div&gt;" style="ellipse;whiteSpace=wrap;html=1;aspect=fixed;fillColor=#d5e8d4;strokeColor=#82b366;" vertex="1" parent="1">
          <mxGeometry x="570" y="950" width="40" height="40" as="geometry" />
        </mxCell>
        <mxCell id="56UlhMCWbAaiD_25nn8Y-96" value="*/" style="text;html=1;align=center;verticalAlign=middle;whiteSpace=wrap;rounded=0;" vertex="1" parent="1">
          <mxGeometry x="460" y="940" width="60" height="30" as="geometry" />
        </mxCell>
        <mxCell id="56UlhMCWbAaiD_25nn8Y-97" value="/" style="text;html=1;align=center;verticalAlign=middle;whiteSpace=wrap;rounded=0;" vertex="1" parent="1">
          <mxGeometry x="280" y="1000" width="60" height="30" as="geometry" />
        </mxCell>
        <mxCell id="56UlhMCWbAaiD_25nn8Y-98" value="&lt;div&gt;e25&lt;/div&gt;" style="ellipse;whiteSpace=wrap;html=1;aspect=fixed;fillColor=#d5e8d4;strokeColor=#82b366;" vertex="1" parent="1">
          <mxGeometry x="570" y="1010" width="40" height="40" as="geometry" />
        </mxCell>
        <mxCell id="56UlhMCWbAaiD_25nn8Y-104" value="/*" style="text;html=1;align=center;verticalAlign=middle;whiteSpace=wrap;rounded=0;" vertex="1" parent="1">
          <mxGeometry x="460" y="1000" width="60" height="30" as="geometry" />
        </mxCell>
        <mxCell id="56UlhMCWbAaiD_25nn8Y-105" value="&lt;div&gt;e27&lt;/div&gt;" style="ellipse;whiteSpace=wrap;html=1;aspect=fixed;fillColor=#d5e8d4;strokeColor=#82b366;" vertex="1" parent="1">
          <mxGeometry x="570" y="1070" width="40" height="40" as="geometry" />
        </mxCell>
        <mxCell id="56UlhMCWbAaiD_25nn8Y-107" value="&amp;amp;" style="text;html=1;align=center;verticalAlign=middle;whiteSpace=wrap;rounded=0;" vertex="1" parent="1">
          <mxGeometry x="280" y="1060" width="60" height="30" as="geometry" />
        </mxCell>
        <mxCell id="56UlhMCWbAaiD_25nn8Y-108" value="&amp;amp;&amp;amp;" style="text;html=1;align=center;verticalAlign=middle;whiteSpace=wrap;rounded=0;" vertex="1" parent="1">
          <mxGeometry x="460" y="1060" width="60" height="30" as="geometry" />
        </mxCell>
        <mxCell id="56UlhMCWbAaiD_25nn8Y-109" value="&lt;span lang=&quot;en&quot; class=&quot;ILfuVd&quot;&gt;&lt;span class=&quot;hgKElc&quot;&gt;&lt;b&gt;|&lt;/b&gt;&lt;/span&gt;&lt;/span&gt;" style="text;html=1;align=center;verticalAlign=middle;whiteSpace=wrap;rounded=0;" vertex="1" parent="1">
          <mxGeometry x="280" y="1120" width="60" height="30" as="geometry" />
        </mxCell>
        <mxCell id="56UlhMCWbAaiD_25nn8Y-110" value="&lt;div&gt;e29&lt;/div&gt;" style="ellipse;whiteSpace=wrap;html=1;aspect=fixed;fillColor=#d5e8d4;strokeColor=#82b366;" vertex="1" parent="1">
          <mxGeometry x="570" y="1130" width="40" height="40" as="geometry" />
        </mxCell>
        <mxCell id="56UlhMCWbAaiD_25nn8Y-112" value="&lt;span lang=&quot;en&quot; class=&quot;ILfuVd&quot;&gt;&lt;span class=&quot;hgKElc&quot;&gt;&lt;b&gt;|&lt;/b&gt;&lt;/span&gt;&lt;/span&gt;&lt;span lang=&quot;en&quot; class=&quot;ILfuVd&quot;&gt;&lt;span class=&quot;hgKElc&quot;&gt;&lt;b&gt;|&lt;/b&gt;&lt;/span&gt;&lt;/span&gt;" style="text;html=1;align=center;verticalAlign=middle;whiteSpace=wrap;rounded=0;" vertex="1" parent="1">
          <mxGeometry x="460" y="1120" width="60" height="30" as="geometry" />
        </mxCell>
        <mxCell id="56UlhMCWbAaiD_25nn8Y-113" value="&lt;b&gt;%&lt;/b&gt;" style="text;html=1;align=center;verticalAlign=middle;whiteSpace=wrap;rounded=0;" vertex="1" parent="1">
          <mxGeometry x="280" y="1180" width="60" height="30" as="geometry" />
        </mxCell>
        <mxCell id="56UlhMCWbAaiD_25nn8Y-116" value="&lt;b&gt;:&lt;/b&gt;" style="text;html=1;align=center;verticalAlign=middle;whiteSpace=wrap;rounded=0;" vertex="1" parent="1">
          <mxGeometry x="280" y="1240" width="60" height="30" as="geometry" />
        </mxCell>
        <mxCell id="56UlhMCWbAaiD_25nn8Y-117" value="&lt;div&gt;e32&lt;/div&gt;" style="ellipse;whiteSpace=wrap;html=1;aspect=fixed;fillColor=#d5e8d4;strokeColor=#82b366;" vertex="1" parent="1">
          <mxGeometry x="374" y="1310" width="40" height="40" as="geometry" />
        </mxCell>
        <mxCell id="56UlhMCWbAaiD_25nn8Y-118" value="&lt;b&gt;EOF&lt;/b&gt;" style="text;html=1;align=center;verticalAlign=middle;whiteSpace=wrap;rounded=0;" vertex="1" parent="1">
          <mxGeometry x="280" y="1300" width="60" height="30" as="geometry" />
        </mxCell>
        <mxCell id="56UlhMCWbAaiD_25nn8Y-127" style="edgeStyle=orthogonalEdgeStyle;rounded=0;orthogonalLoop=1;jettySize=auto;html=1;exitX=0;exitY=0.5;exitDx=0;exitDy=0;" edge="1" parent="1" source="56UlhMCWbAaiD_25nn8Y-1" target="56UlhMCWbAaiD_25nn8Y-1">
          <mxGeometry relative="1" as="geometry" />
        </mxCell>
        <mxCell id="56UlhMCWbAaiD_25nn8Y-132" style="edgeStyle=orthogonalEdgeStyle;rounded=0;orthogonalLoop=1;jettySize=auto;html=1;exitX=1;exitY=0.5;exitDx=0;exitDy=0;" edge="1" parent="1" source="56UlhMCWbAaiD_25nn8Y-2" target="56UlhMCWbAaiD_25nn8Y-2">
          <mxGeometry relative="1" as="geometry" />
        </mxCell>
        <mxCell id="56UlhMCWbAaiD_25nn8Y-133" style="edgeStyle=orthogonalEdgeStyle;rounded=0;orthogonalLoop=1;jettySize=auto;html=1;exitX=1;exitY=0.5;exitDx=0;exitDy=0;" edge="1" parent="1" source="56UlhMCWbAaiD_25nn8Y-26" target="56UlhMCWbAaiD_25nn8Y-26">
          <mxGeometry relative="1" as="geometry" />
        </mxCell>
        <mxCell id="56UlhMCWbAaiD_25nn8Y-134" value="&lt;div&gt;Digito&lt;/div&gt;" style="text;html=1;align=center;verticalAlign=middle;whiteSpace=wrap;rounded=0;" vertex="1" parent="1">
          <mxGeometry x="430" y="40" width="60" height="30" as="geometry" />
        </mxCell>
        <mxCell id="56UlhMCWbAaiD_25nn8Y-135" value="Letra" style="text;html=1;align=center;verticalAlign=middle;whiteSpace=wrap;rounded=0;" vertex="1" parent="1">
          <mxGeometry x="430" y="110" width="60" height="30" as="geometry" />
        </mxCell>
      </root>
    </mxGraphModel>
  </diagram>
</mxfile>
